<?xml version="1.0" encoding="utf-8"?>
<!-- Generator: Adobe Illustrator 22.0.1, SVG Export Plug-In . SVG Version: 6.00 Build 0)  -->
<svg version="1.1" id="Layer_1" xmlns="http://www.w3.org/2000/svg" xmlns:xlink="http://www.w3.org/1999/xlink" x="0px" y="0px"
	 viewBox="0 0 512 512" style="enable-background:new 0 0 512 512;" xml:space="preserve">
<style type="text/css">
	.st0{fill:#FFFFFF;}
</style>
<g>
	<g>
		<path class="st0" d="M472.5,105.2h-36.3c4.8-7.6,8-16.1,8.9-25.1c2.9-28.8-12.3-54.6-38.1-66c-23.7-10.5-50.4-6.2-69.5,11.2
			l-45.9,41.6c-8.9-9.8-21.8-15.9-36-15.9c-14.3,0-27.1,6.2-36.1,16l-45.9-41.6C154.3,7.9,127.7,3.6,104,14.1
			C78.2,25.6,63,51.4,65.9,80.1c0.9,9,4.1,17.5,8.9,25.1H38.5c-18,0-32.5,14.6-32.5,32.5v48.8c0,9,7.3,16.3,16.3,16.3h466.5
			c9,0,16.3-7.3,16.3-16.3v-48.8C505.1,119.8,490.5,105.2,472.5,105.2z M206.7,99.8v5.4h-76.6c-20.2,0-36.1-18.9-31.1-39.9
			c2.2-9.3,8.9-17.2,17.6-21.2c11.9-5.5,25.1-3.7,35,5.3l55,49.9C206.7,99.5,206.7,99.6,206.7,99.8z M412.8,75.8
			c-1.2,16.9-16.5,29.4-33.5,29.4h-75v-5.4c0-0.2,0-0.4,0-0.6c12.5-11.3,39.5-35.8,54.2-49.1c8.3-7.6,20-11.1,30.8-7.9
			C404.8,46.9,413.9,60,412.8,75.8z"/>
	</g>
</g>
<g>
	<g>
		<path class="st0" d="M38.5,235.4v238.7c0,18,14.6,32.5,32.5,32.5H223V235.4H38.5z"/>
	</g>
</g>
<g>
	<g>
		<path class="st0" d="M288.1,235.4v271.2H440c18,0,32.5-14.6,32.5-32.5V235.4L288.1,235.4L288.1,235.4z"/>
	</g>
</g>
</svg>
