<?xml version="1.0" encoding="utf-8"?>
<!-- Generator: Adobe Illustrator 22.0.1, SVG Export Plug-In . SVG Version: 6.00 Build 0)  -->
<svg version="1.1" id="Calque_1" xmlns="http://www.w3.org/2000/svg" xmlns:xlink="http://www.w3.org/1999/xlink" x="0px" y="0px"
	 viewBox="0 0 446.8 154.3" style="enable-background:new 0 0 446.8 154.3;" xml:space="preserve">
<style type="text/css">
	.st0{fill:#F3997B;}
	.st1{fill:#C3DB9B;}
	.st2{fill:#8AB4E1;}
	.st3{fill:#203C78;}
</style>
<g>
	
		<rect x="344.4" y="31.4" transform="matrix(0.1908 -0.9816 0.9816 0.1908 246.8992 373.4917)" class="st0" width="11.2" height="11.2"/>
	
		<rect x="374.5" y="123.5" transform="matrix(0.1908 -0.9816 0.9816 0.1908 180.3558 482.5848)" class="st1" width="16.8" height="16.8"/>
	<g>
		<path class="st2" d="M56.3,66.7v33.1h-3.9V75.4c0-0.3,0-0.7,0-1c0-0.4,0-0.7,0.1-1.1L41.1,94c-0.4,0.7-0.9,1-1.6,1h-0.6
			c-0.7,0-1.3-0.3-1.6-1L25.7,73.2c0.1,0.8,0.1,1.6,0.1,2.3v24.4h-3.9V66.7h3.3c0.4,0,0.7,0,0.9,0.1c0.2,0.1,0.4,0.3,0.6,0.6
			l11.4,20.4c0.2,0.4,0.4,0.8,0.5,1.2c0.2,0.4,0.3,0.8,0.5,1.2c0.2-0.4,0.3-0.8,0.5-1.2c0.2-0.4,0.4-0.8,0.6-1.2l11.2-20.4
			c0.2-0.4,0.4-0.6,0.6-0.6c0.2-0.1,0.5-0.1,0.9-0.1H56.3z"/>
		<path class="st2" d="M95.4,83.3c0,2.5-0.4,4.8-1.2,6.8c-0.8,2.1-1.9,3.9-3.3,5.4c-1.4,1.5-3.2,2.7-5.2,3.5c-2,0.8-4.2,1.2-6.7,1.2
			c-2.4,0-4.7-0.4-6.7-1.2s-3.7-2-5.2-3.5c-1.4-1.5-2.5-3.3-3.3-5.4s-1.2-4.4-1.2-6.8c0-2.5,0.4-4.8,1.2-6.8
			c0.8-2.1,1.9-3.9,3.3-5.4s3.2-2.7,5.2-3.5s4.2-1.2,6.7-1.2c2.4,0,4.7,0.4,6.7,1.2c2,0.8,3.7,2,5.2,3.5c1.4,1.5,2.5,3.3,3.3,5.4
			C95,78.5,95.4,80.8,95.4,83.3z M90.8,83.3c0-2-0.3-3.9-0.8-5.5c-0.6-1.6-1.3-3-2.4-4.1c-1-1.1-2.3-2-3.7-2.6s-3.1-0.9-4.9-0.9
			c-1.8,0-3.4,0.3-4.8,0.9s-2.7,1.5-3.7,2.6s-1.8,2.5-2.4,4.1s-0.8,3.4-0.8,5.5s0.3,3.9,0.8,5.5c0.6,1.6,1.3,3,2.4,4.1
			c1,1.1,2.3,2,3.7,2.6c1.4,0.6,3.1,0.9,4.8,0.9c1.8,0,3.4-0.3,4.9-0.9c1.4-0.6,2.7-1.4,3.7-2.6c1-1.1,1.8-2.5,2.4-4.1
			C90.5,87.2,90.8,85.3,90.8,83.3z"/>
		<path class="st2" d="M128.7,66.7v33.1h-2.2c-0.4,0-0.7-0.1-0.9-0.2c-0.2-0.1-0.5-0.3-0.7-0.6l-19.2-25c0,0.4,0.1,0.8,0.1,1.1
			c0,0.4,0,0.7,0,1v23.6h-3.9v-33h2.3c0.2,0,0.4,0,0.5,0s0.3,0.1,0.4,0.1c0.1,0.1,0.2,0.1,0.3,0.2s0.2,0.2,0.3,0.4l19.2,25
			c0-0.4-0.1-0.8-0.1-1.2c0-0.4,0-0.7,0-1.1V66.7H128.7z"/>
		<path class="st3" d="M142.9,71.4v9.3h11.7v4.8h-11.7V95h14.9v5h-21.1V66.4h21.1v5H142.9z"/>
		<path class="st3" d="M181,72.5c-0.2,0.3-0.4,0.6-0.6,0.7c-0.2,0.1-0.5,0.2-0.8,0.2s-0.7-0.1-1.1-0.4c-0.4-0.2-0.8-0.5-1.4-0.8
			c-0.5-0.3-1.1-0.6-1.8-0.8c-0.7-0.2-1.5-0.4-2.5-0.4c-0.9,0-1.6,0.1-2.3,0.3c-0.6,0.2-1.2,0.5-1.6,0.9c-0.4,0.4-0.8,0.8-1,1.3
			s-0.3,1.1-0.3,1.7c0,0.8,0.2,1.4,0.7,2c0.4,0.5,1,1,1.7,1.3c0.7,0.4,1.6,0.7,2.5,1s1.9,0.6,2.8,0.9c1,0.3,1.9,0.7,2.8,1.2
			c0.9,0.4,1.8,1,2.5,1.7s1.3,1.5,1.7,2.5s0.7,2.1,0.7,3.5c0,1.5-0.3,2.9-0.8,4.2c-0.5,1.3-1.3,2.5-2.3,3.4c-1,1-2.2,1.8-3.6,2.3
			c-1.4,0.6-3.1,0.8-4.9,0.8c-1.1,0-2.1-0.1-3.1-0.3s-2-0.5-3-0.9c-0.9-0.4-1.8-0.8-2.7-1.4c-0.8-0.5-1.6-1.1-2.2-1.8l1.8-3
			c0.2-0.2,0.4-0.4,0.6-0.5c0.2-0.1,0.5-0.2,0.8-0.2c0.4,0,0.8,0.2,1.2,0.5s1,0.7,1.6,1.1s1.3,0.7,2.2,1.1s1.8,0.5,3,0.5
			c1.8,0,3.1-0.4,4.1-1.3c1-0.8,1.5-2,1.5-3.6c0-0.9-0.2-1.6-0.7-2.1c-0.4-0.6-1-1-1.7-1.4s-1.6-0.7-2.5-1s-1.9-0.5-2.8-0.9
			c-1-0.3-1.9-0.7-2.8-1.1c-0.9-0.4-1.8-1-2.5-1.7s-1.3-1.6-1.7-2.6s-0.7-2.3-0.7-3.9c0-1.2,0.2-2.4,0.7-3.6s1.2-2.2,2.1-3.1
			c0.9-0.9,2.1-1.6,3.4-2.1c1.4-0.5,2.9-0.8,4.7-0.8c2,0,3.8,0.3,5.5,0.9s3.1,1.5,4.3,2.6L181,72.5z"/>
		<path class="st3" d="M199.5,66.4c2.2,0,4.2,0.3,5.8,0.8c1.6,0.5,3,1.3,4,2.2c1.1,0.9,1.9,2.1,2.4,3.4s0.8,2.7,0.8,4.3
			c0,1.6-0.3,3.1-0.8,4.5c-0.5,1.3-1.4,2.5-2.4,3.5c-1.1,1-2.4,1.7-4.1,2.3c-1.6,0.5-3.5,0.8-5.7,0.8h-4.6V100h-6.2V66.4H199.5z
			 M199.5,83.2c1.1,0,2.1-0.1,3-0.4s1.6-0.7,2.1-1.2c0.6-0.5,1-1.2,1.3-1.9c0.3-0.8,0.4-1.6,0.4-2.6c0-0.9-0.1-1.7-0.4-2.4
			c-0.3-0.7-0.7-1.3-1.2-1.8c-0.6-0.5-1.3-0.9-2.1-1.2c-0.9-0.3-1.9-0.4-3-0.4H195v12L199.5,83.2L199.5,83.2z"/>
		<path class="st3" d="M243.6,99.9h-4.8c-0.5,0-1-0.1-1.3-0.4c-0.3-0.3-0.6-0.6-0.8-1l-2.5-6.8h-13.9l-2.5,6.8
			c-0.1,0.4-0.4,0.7-0.7,1c-0.4,0.3-0.8,0.4-1.3,0.4h-4.9l13.2-33.4h6.3L243.6,99.9z M232.6,87.2l-4.1-11.1
			c-0.2-0.5-0.4-1.1-0.6-1.8c-0.2-0.7-0.4-1.4-0.6-2.2c-0.2,0.8-0.4,1.5-0.6,2.2s-0.4,1.3-0.6,1.8l-4,11.1H232.6z"/>
		<path class="st3" d="M269,92c0.3,0,0.6,0.1,0.9,0.4l2.5,2.7c-1.4,1.7-3,3-5,3.9s-4.4,1.3-7.1,1.3c-2.5,0-4.7-0.4-6.7-1.3
			c-2-0.8-3.7-2-5.1-3.5s-2.5-3.3-3.2-5.4s-1.1-4.4-1.1-6.9s0.4-4.8,1.2-6.9c0.8-2.1,1.9-3.9,3.4-5.4s3.2-2.7,5.2-3.5
			s4.3-1.3,6.7-1.3c2.4,0,4.6,0.4,6.5,1.2c1.9,0.8,3.5,1.8,4.8,3.1l-2.1,2.9c-0.1,0.2-0.3,0.3-0.5,0.5c-0.2,0.1-0.5,0.2-0.8,0.2
			c-0.2,0-0.5-0.1-0.7-0.2s-0.5-0.3-0.8-0.5s-0.6-0.4-1-0.6s-0.8-0.4-1.3-0.6s-1.1-0.4-1.8-0.5c-0.7-0.1-1.4-0.2-2.3-0.2
			c-1.5,0-2.9,0.3-4.1,0.8s-2.3,1.3-3.2,2.3c-0.9,1-1.6,2.2-2.1,3.7s-0.7,3.1-0.7,5s0.3,3.6,0.8,5c0.5,1.5,1.2,2.7,2.2,3.7
			c0.9,1,2,1.8,3.2,2.3s2.6,0.8,4,0.8c0.8,0,1.6,0,2.3-0.1c0.7-0.1,1.3-0.2,1.9-0.4c0.6-0.2,1.1-0.5,1.6-0.8s1-0.7,1.5-1.2
			c0.2-0.1,0.3-0.3,0.5-0.3C268.6,92,268.8,92,269,92z"/>
		<path class="st3" d="M282.9,71.4v9.3h11.7v4.8h-11.7V95h14.9v5h-21.1V66.4h21.1v5H282.9z"/>
		<path class="st3" d="M302.1,97.3c0-0.4,0.1-0.8,0.2-1.1s0.4-0.7,0.6-0.9c0.3-0.3,0.6-0.5,0.9-0.6c0.4-0.2,0.7-0.2,1.1-0.2
			s0.8,0.1,1.1,0.2c0.4,0.2,0.7,0.4,0.9,0.6c0.3,0.3,0.5,0.6,0.6,0.9c0.2,0.4,0.2,0.7,0.2,1.1c0,0.4-0.1,0.8-0.2,1.1
			c-0.2,0.3-0.4,0.7-0.6,0.9c-0.3,0.3-0.6,0.5-0.9,0.6c-0.4,0.1-0.7,0.2-1.1,0.2s-0.8-0.1-1.1-0.2c-0.4-0.1-0.7-0.4-0.9-0.6
			c-0.3-0.3-0.5-0.6-0.6-0.9S302.1,97.7,302.1,97.3z"/>
		<path class="st3" d="M319.1,99.9h-4.5V66.7h4.5V99.9z"/>
		<path class="st3" d="M350,70.5h-10.7v29.4h-4.5V70.5H324v-3.8h26V70.5z"/>
		<path class="st3" d="M380.4,83.9v12.7c-1.7,1.2-3.4,2.1-5.3,2.7s-4,0.9-6.2,0.9c-2.7,0-5.1-0.4-7.2-1.2s-4-2-5.5-3.5
			s-2.7-3.3-3.5-5.4s-1.2-4.4-1.2-6.9s0.4-4.8,1.2-6.9s1.9-3.9,3.4-5.4s3.2-2.6,5.3-3.5c2.1-0.8,4.4-1.2,7-1.2
			c1.3,0,2.5,0.1,3.7,0.3c1.1,0.2,2.2,0.5,3.1,0.8c1,0.4,1.8,0.8,2.7,1.3c0.8,0.5,1.6,1.1,2.3,1.7l-1.3,2c-0.2,0.3-0.5,0.5-0.8,0.6
			s-0.7,0-1.1-0.2s-0.8-0.5-1.3-0.8s-1.1-0.6-1.7-0.9c-0.7-0.3-1.5-0.5-2.4-0.7s-2-0.3-3.3-0.3c-1.9,0-3.6,0.3-5.1,0.9
			s-2.8,1.5-3.9,2.6s-1.9,2.5-2.5,4.1s-0.9,3.4-0.9,5.4c0,2.1,0.3,3.9,0.9,5.6c0.6,1.6,1.4,3,2.5,4.2c1.1,1.1,2.4,2,4,2.6
			s3.3,0.9,5.3,0.9c1.5,0,2.9-0.2,4.1-0.5s2.4-0.8,3.5-1.4v-7.3H371c-0.3,0-0.5-0.1-0.7-0.3c-0.2-0.2-0.3-0.4-0.3-0.6v-2.5h10.4
			V83.9z"/>
		<path class="st3" d="M413.9,99.9h-3.5c-0.4,0-0.7-0.1-1-0.3c-0.2-0.2-0.4-0.5-0.6-0.8l-3.1-8h-14.9l-3.1,8
			c-0.1,0.3-0.3,0.5-0.5,0.7c-0.3,0.2-0.6,0.3-1,0.3h-3.5L396,66.7h4.5L413.9,99.9z M404.6,87.5L399.4,74c-0.2-0.4-0.3-0.9-0.5-1.4
			s-0.3-1.1-0.5-1.7c-0.3,1.2-0.7,2.3-1,3.1l-5.2,13.5H404.6z"/>
	</g>
	
		<rect x="4.2" y="124.2" transform="matrix(0.1908 -0.9816 0.9816 0.1908 -120.6775 127.0101)" class="st3" width="25" height="25"/>
	<g>
		
			<image style="overflow:visible;enable-background:new    ;" width="85" height="86" xlink:href="AFFF8B9F.png"  transform="matrix(1 0 0 1 388.2911 -33.962)">
		</image>
	</g>
</g>
</svg>
