<?xml version="1.0" encoding="utf-8"?>
<!-- Generator: Adobe Illustrator 22.0.1, SVG Export Plug-In . SVG Version: 6.00 Build 0)  -->
<svg version="1.1" id="Calque_2_1_" xmlns="http://www.w3.org/2000/svg" xmlns:xlink="http://www.w3.org/1999/xlink" x="0px"
	 y="0px" viewBox="0 0 48 48" style="enable-background:new 0 0 48 48;" xml:space="preserve">
<style type="text/css">
	.st0{fill:#FFFFFF;}
</style>
<path class="st0" d="M24.2,40.7c0-1.7,0-3.3,0-5c0.1,0,0.2,0,0.3,0c1,0,2,0,3,0c0.8,0,1.4-0.5,1.6-1.2c0.1-0.2,0.1-0.5,0.1-0.7
	c0-0.9,0-1.9,0-2.8c0-0.1,0-0.2,0.2-0.2c1.3-0.2,2-1.1,2.5-2.2c0.9-1.9,0.8-3.9-0.1-5.8c-0.1-0.3-0.3-0.6-0.4-0.8
	c-0.1-0.1,0-0.2,0.1-0.3c0.5-0.5,1-1,1.4-1.5c1.4-1.8,1.7-3.8,0.8-5.9c-0.1-0.3-0.2-0.6-0.4-0.9v-0.1c0.2,0.1,0.3,0.1,0.4,0.2
	c2.7,1.4,4.5,3.6,5.8,6.3c0.9,1.9,1.2,4,1.2,6.1c0,1.2-0.1,2.4-0.3,3.5c-0.4,1.7-1.2,3.2-2.1,4.6c-1,1.5-2.3,2.7-3.8,3.7
	c-0.2,0.1-0.2,0.2-0.2,0.5c0,0.9,0,1.7,0,2.6c0.1,0,0.2,0,0.3,0c1.1,0,2.2,0,3.3,0.1c0.9,0.1,1.7,0.5,2.3,1.2
	c0.4,0.5,0.6,1.1,0.7,1.8c0,1.1,0.1,2.2,0.1,3.4c0,0,0,0.1,0,0.2c-0.1,0-0.1,0-0.2,0c-9.8,0-19.6,0-29.3-0.1c-1.1,0-2.3-0.1-3.4-0.1
	c-0.2,0-0.3-0.1-0.3-0.2c-0.1-1.4-0.2-2.8,0.3-4.2c0-0.9,0.5-1.5,1.3-1.9c0.5-0.3,1-0.3,1.6-0.3c2,0,4,0,6-0.1c2.3,0,4.6,0,6.9,0
	C23.9,40.7,24,40.7,24.2,40.7z"/>
<path class="st0" d="M19.2,0.6c1.4,0.1,2.8,0.1,4.2,0.2c0.1,0,0.2,0,0.3,0C23.8,0.9,24,1,24,1.2c0.2,0.7,0.2,1.4,0.1,2.1
	C24,3.8,23.7,4,23.1,4s-0.6,0.1-0.6,0.7c0,0.7,0,1.3,0,2c0,0.4,0.1,0.8,0.5,1.1c0.3,0.3,0.7,0.7,1,1c0.1,0.1,0.2,0.3,0.2,0.4
	c0,0.8,0,1.6,0,2.3c0,0.6-0.2,1.2-0.5,1.7c-0.5,0.7-0.8,1.5-1,2.3c-0.2,1.1-0.1,2.2,0.3,3.2c0.1,0.2,0.2,0.5,0.2,0.7s0,0.4-0.1,0.5
	c-0.6,0.5-0.6,1.3-0.6,2c0,1.1,0,2.3,0,3.4c0,0.2-0.1,0.4-0.2,0.6c-0.4,0.3-0.7,0.6-1,1c-0.4,0.4-0.8,0.5-1.3,0.5
	c-0.7,0-1.5,0-2.2,0c-0.1,0-0.2,0-0.3-0.1c-0.5-0.5-1-1-1.5-1.6c-0.1-0.1-0.1-0.2-0.1-0.3c0-1.5,0-3,0-4.6c0-0.2,0-0.3-0.2-0.4
	c-0.5-0.4-0.9-0.9-1.4-1.3c-0.1-0.1-0.1-0.2-0.1-0.3c0-3.2,0-6.4,0-9.6c0-0.1,0.1-0.2,0.1-0.3c0.3-0.3,0.7-0.7,1-1
	c0.3-0.3,0.5-0.7,0.5-1.2c0-0.7,0-1.3,0-2c0-0.5-0.1-0.6-0.6-0.6s-0.8-0.3-0.9-0.7c-0.2-0.7-0.2-1.4,0-2.1c0-0.2,0.2-0.3,0.4-0.3
	c1.1-0.1,2.2-0.1,3.3-0.2C18.4,0.7,18.8,0.7,19.2,0.6C19.2,0.7,19.2,0.7,19.2,0.6z"/>
<path class="st0" d="M10.8,30.7c5.5,0,11.1,0,16.6,0c0,1.1,0,2.2,0,3.3c-0.1,0-0.2,0-0.3,0c-5.4,0-10.7,0-16.1,0
	c-0.2,0-0.3-0.1-0.3-0.3c0-0.9,0-1.8,0-2.8C10.8,30.9,10.8,30.8,10.8,30.7z"/>
<circle class="st0" cx="28.3" cy="16.2" r="4.7"/>
</svg>
