<?xml version="1.0" encoding="utf-8"?>
<!-- Generator: Adobe Illustrator 22.0.1, SVG Export Plug-In . SVG Version: 6.00 Build 0)  -->
<svg version="1.1" id="Calque_2_1_" xmlns="http://www.w3.org/2000/svg" xmlns:xlink="http://www.w3.org/1999/xlink" x="0px"
	 y="0px" viewBox="0 0 48 48" style="enable-background:new 0 0 48 48;" xml:space="preserve">
<style type="text/css">
	.st0{fill:#FFFFFF;}
</style>
<g>
	<path class="st0" d="M37.8,15.7c0.6-1,1.2-2,1.8-2.9c0.2-0.3,0.4-0.4,0.7-0.4c1,0,1.9,0,2.9,0c1.7,0,2.9,1.2,2.9,2.9
		c0,4.3,0,8.6,0,12.8c0,1.5-0.9,2.6-2.4,2.9c-0.5,0.1-0.5,0.3-0.5,0.6c0,4.2,0,8.4,0,12.7c0,1.4-0.5,2.4-1.7,2.8
		c-1.2,0.4-2.4,0.2-3.4-0.7c-0.3-0.3-0.4-0.3-0.6,0c-0.7,0.8-1.6,1-2.6,0.8c-1.5-0.3-2.5-1.5-2.5-3c0-8.4,0-16.9,0-25.3
		c0-0.6-0.1-0.7-0.7-0.7c-3.2,0-6.4,0-9.5,0c-2.4,0-3.8-2.3-2.7-4.3c0.5-1,1.4-1.5,2.4-1.5c4.7,0,9.3,0,14,0c0.3,0,0.4,0.2,0.5,0.4
		C36.8,13.7,37.3,14.7,37.8,15.7z"/>
	<path class="st0" d="M13.7,37.3c-3.2,0-6.3-0.1-9.4,0c-1.8,0.1-3.1-1.3-3.1-3.1c0.1-9.4,0-18.7,0-28.1c0-2.1,0.9-3,3-3
		c7.7,0,15.3,0,23,0c0.6,0,0.8,0.2,0.7,0.8c0,1.1,0,2.1,0,3.2c0,0.5-0.1,0.7-0.7,0.7c-6.9,0-13.8,0-20.6,0C6,7.7,5.8,7.9,5.8,8.5
		c0,7.7,0,15.3,0,23c0,0.6,0.1,0.8,0.8,0.8c6.9,0,13.8,0,20.7,0c0.5,0,0.7,0.1,0.7,0.6c0,1.3,0,2.6,0,3.9c0,0.4-0.1,0.5-0.5,0.5
		c-2.6,0-5.1,0-7.7,0c-0.1,0-0.3,0-0.4,0c0,0.3,0.2,0.4,0.3,0.6c1.5,2,3,4,4.4,5.9c0.5,0.7,0.5,1.4-0.1,1.9
		c-0.4,0.4-1.1,0.3-1.3-0.2c-0.5-1-1.2-1.7-1.8-2.5c-1.3-1.7-2.6-3.3-3.8-4.9c-0.3-0.4-0.5-0.4-0.8,0c-1.8,2.2-3.7,4.4-5.5,6.7
		c-0.1,0.1-0.3,0.3-0.3,0.5c-0.2,0.5-0.5,0.8-1.1,0.7c-0.4-0.1-0.8-0.7-0.9-1.2c0-0.4,0.2-0.8,0.4-1.1c1.5-1.9,2.9-3.9,4.4-5.8
		C13.4,37.8,13.5,37.6,13.7,37.3z"/>
	<path class="st0" d="M38,1.2c2.8,0,5.2,2.3,5.2,5s-2.4,5-5.2,5s-5.1-2.3-5.1-5C32.8,3.4,35.2,1.2,38,1.2z"/>
</g>
</svg>
