<?xml version="1.0" encoding="utf-8"?>
<!-- Generator: Adobe Illustrator 22.0.1, SVG Export Plug-In . SVG Version: 6.00 Build 0)  -->
<svg version="1.1" id="Calque_2_1_" xmlns="http://www.w3.org/2000/svg" xmlns:xlink="http://www.w3.org/1999/xlink" x="0px"
	 y="0px" viewBox="0 0 48 48" style="enable-background:new 0 0 48 48;" xml:space="preserve">
<style type="text/css">
	.st0{fill:#FFFFFF;}
</style>
<path class="st0" d="M47,32c-0.9,0-4.9,0-5.7,0c0-1.2,0-18,0-19.2c-12.3,0-17.7,0-30,0c0,4,0,4.7,0,8.7c-0.9,0-5.3,0-6.1,0
	c0-0.2,0-0.3,0-0.4c0-4.2,0-8.4,0-12.5c0-0.9,0.6-1.6,1.5-1.7c0.2,0,0.4,0,0.6,0c12.5,0,25.1,0,37.6,0c0.6,0,1.3,0,1.7,0.6
	c0.2,0.3,0.4,0.7,0.4,1C47,10,47,30.4,47,32z"/>
<path class="st0" d="M11.3,24.9c0-1.2-0.5-1.7-1.7-1.7c-2.1,0-4.2,0-6.3,0c-1.3,0-1.8,0.5-1.8,1.8c0,4.8,0,9.7,0,14.5
	c0,1.1,0.3,1.7,1.3,2.1c2.4,0,4.8,0,7.3,0c0.8-0.3,1.3-0.8,1.3-1.8C11.2,34.8,11.3,29.9,11.3,24.9z M6.3,40.8
	c-0.5,0-0.9-0.4-0.8-0.9c0-0.5,0.4-0.8,0.9-0.8s0.9,0.4,0.9,0.9C7.2,40.4,6.8,40.8,6.3,40.8z M9.5,38.4c-2.6,0-3.6,0-6.3,0
	c0-4,0-8,0-12.1c2.6,0,3.6,0,6.3,0C9.5,30.4,9.5,34.4,9.5,38.4z"/>
<path class="st0" d="M32.1,41.2c-1.1-0.6-1.5-3.2-1.6-4.4c0-0.5-0.2-1.2-0.8-1.2c-1.2,0-2.5,0-3.7,0s-2.5,0-3.7,0
	c-0.5,0-0.7,0.7-0.8,1.2c0,1.2-0.4,3.7-1.6,4.4c-0.3,0.2-0.3,0.6,0.2,0.6H26h5.9C32.3,41.8,32.3,41.4,32.1,41.2z"/>
<path class="st0" d="M45.5,28h-31c-0.8,0-1.5,0.9-1.5,2v2.5c0,1.1,0.7,2,1.5,2h30.9c0.8,0,1.5-0.9,1.5-2V30C47,28.9,46.3,28,45.5,28
	z M26,32.5c-0.8,0-1.4-0.6-1.4-1.4s0.6-1.4,1.4-1.4s1.4,0.6,1.4,1.4S26.8,32.5,26,32.5z"/>
</svg>
