<?xml version="1.0" encoding="utf-8"?>
<!-- Generator: Adobe Illustrator 22.0.1, SVG Export Plug-In . SVG Version: 6.00 Build 0)  -->
<svg version="1.1" id="Calque_2_1_" xmlns="http://www.w3.org/2000/svg" xmlns:xlink="http://www.w3.org/1999/xlink" x="0px"
	 y="0px" viewBox="0 0 48 48" style="enable-background:new 0 0 48 48;" xml:space="preserve">
<style type="text/css">
	.st0{fill:#FFFFFF;}
</style>
<path class="st0" d="M7.2,34.1L2,39.3h0.1c-1.6,1.6-1.6,4.3,0,5.8c1.6,1.6,4.2,1.6,5.8,0.1H8l7.2-7.1l5.6-5.7H21L32.4,21h11.5
	L47,9.2L45.7,8l-6.2,6.2l-6.1-6.1l6.3-6.2l-1.3-1.3L26.6,3.8V15l-0.1-0.1L12.1,29.3L7.2,34.1z M6.3,43.7L6.3,43.7
	c-0.7,0.6-1.9,0.6-2.6-0.1C3,43,3,41.8,3.7,41c0.7-0.7,1.9-0.7,2.6,0C7,41.8,7,43,6.3,43.7L6.3,43.7z"/>
</svg>
