<?xml version="1.0" encoding="utf-8"?>
<!-- Generator: Adobe Illustrator 22.0.1, SVG Export Plug-In . SVG Version: 6.00 Build 0)  -->
<svg version="1.1" id="Layer_1" xmlns="http://www.w3.org/2000/svg" xmlns:xlink="http://www.w3.org/1999/xlink" x="0px" y="0px"
	 viewBox="0 0 512 512" style="enable-background:new 0 0 512 512;" xml:space="preserve">
<style type="text/css">
	.st0{fill:#5B5959;}
</style>
<path class="st0" d="M9.1,306c9.9,19.8,96,163.7,101.5,181.1c5.5,17.4,35.7,29.3,67.7,13.7c32-15.5,17.4-49.4,17.4-49.4
	c-16.5-8.2-36.6-45.7-53-67.7c-16.5-22,11.9-35.7,11.9-35.7C317.3,328,439,384.7,439,384.7s40.2,33.8,48.5,0
	c8.2-33.8-13.7-170.1-13.7-170.1l29.3-11l-9.1-45.7L460,156c-2.7-14.6-21-68.6-54.9-128s-62.2,0.9-62.2,0.9
	C236.8,179.8,9.1,242,9.1,242S-4.6,278.6,9.1,306z"/>
</svg>
